<svg width="481" height="108" viewBox="0 0 481 108" fill="none" xmlns="http://www.w3.org/2000/svg">
<path d="M17.7647 45.5568V83H5.15271V35.7814H16.9792L17.7647 45.5568ZM16.0191 57.7324H12.5279C12.5279 54.4448 12.9207 51.4191 13.7062 48.6552C14.5208 45.8622 15.6991 43.4475 17.241 41.4109C18.8121 39.3453 20.7468 37.7452 23.0452 36.6105C25.3435 35.4759 28.0056 34.9086 31.0313 34.9086C33.126 34.9086 35.0462 35.2286 36.7918 35.8687C38.5374 36.4796 40.0357 37.4542 41.2867 38.7925C42.5669 40.1017 43.556 41.8183 44.2543 43.9421C44.9525 46.0368 45.3016 48.5534 45.3016 51.4918V83H32.7333V52.8883C32.7333 50.7354 32.4423 49.0771 31.8605 47.9133C31.2786 46.7496 30.4494 45.935 29.373 45.4695C28.3256 45.004 27.0601 44.7712 25.5763 44.7712C23.9471 44.7712 22.5215 45.1058 21.2996 45.775C20.1067 46.4441 19.1176 47.3751 18.332 48.5679C17.5465 49.7317 16.9646 51.0991 16.5864 52.6701C16.2082 54.2411 16.0191 55.9286 16.0191 57.7324ZM44.1234 56.2922L39.6284 56.8596C39.6284 53.7757 40.0066 50.91 40.7631 48.2625C41.5486 45.6149 42.6978 43.2875 44.2106 41.28C45.7526 39.2726 47.6582 37.7161 49.9275 36.6105C52.1968 35.4759 54.8152 34.9086 57.7827 34.9086C60.052 34.9086 62.1176 35.2431 63.9796 35.9123C65.8416 36.5523 67.4272 37.5852 68.7364 39.0107C70.0747 40.4072 71.093 42.2401 71.7912 44.5094C72.5185 46.7787 72.8822 49.5571 72.8822 52.8447V83H60.2702V52.8447C60.2702 50.6627 59.9793 49.0043 59.3974 47.8697C58.8446 46.706 58.03 45.9059 56.9536 45.4695C55.9062 45.004 54.6552 44.7712 53.2005 44.7712C51.6876 44.7712 50.3639 45.0767 49.2292 45.6877C48.0946 46.2696 47.1491 47.0842 46.3926 48.1315C45.6362 49.1789 45.0689 50.4008 44.6907 51.7973C44.3125 53.1647 44.1234 54.663 44.1234 56.2922ZM108.1 72.3518V51.3173C108.1 49.8044 107.852 48.5097 107.358 47.4333C106.863 46.3277 106.092 45.4695 105.045 44.8585C104.027 44.2476 102.703 43.9421 101.074 43.9421C99.6772 43.9421 98.4699 44.1894 97.4516 44.684C96.4333 45.1495 95.6478 45.8332 95.095 46.735C94.5423 47.6078 94.2659 48.6407 94.2659 49.8335H81.6975C81.6975 47.826 82.163 45.9204 83.094 44.1166C84.025 42.3128 85.3778 40.7273 87.1525 39.3599C88.9272 37.9634 91.0365 36.8724 93.4803 36.0869C95.9533 35.3013 98.7172 34.9086 101.772 34.9086C105.438 34.9086 108.696 35.5195 111.547 36.7415C114.399 37.9634 116.639 39.7963 118.268 42.2401C119.926 44.684 120.755 47.7388 120.755 51.4045V71.6099C120.755 74.1992 120.915 76.3231 121.235 77.9814C121.556 79.6106 122.021 81.0362 122.632 82.2581V83H109.933C109.322 81.7199 108.856 80.1198 108.536 78.1996C108.245 76.2503 108.1 74.3011 108.1 72.3518ZM109.758 54.2411L109.845 61.3545H102.819C101.161 61.3545 99.7209 61.5436 98.499 61.9218C97.277 62.3 96.2733 62.8383 95.4878 63.5365C94.7023 64.2056 94.1204 64.9912 93.7422 65.8931C93.3931 66.795 93.2185 67.7841 93.2185 68.8606C93.2185 69.9371 93.4658 70.9117 93.9604 71.7845C94.455 72.6282 95.1678 73.2973 96.0988 73.7919C97.0297 74.2574 98.1207 74.4902 99.3718 74.4902C101.263 74.4902 102.907 74.112 104.303 73.3555C105.7 72.5991 106.776 71.6681 107.532 70.5626C108.318 69.457 108.725 68.4096 108.754 67.4205L112.071 72.7446C111.606 73.9374 110.965 75.1739 110.151 76.454C109.365 77.7341 108.362 78.9415 107.14 80.0761C105.918 81.1817 104.449 82.0981 102.732 82.8254C101.016 83.5237 98.979 83.8728 96.6224 83.8728C93.6258 83.8728 90.9056 83.2764 88.4617 82.0836C86.047 80.8616 84.1268 79.1888 82.7012 77.0649C81.3047 74.912 80.6065 72.4682 80.6065 69.7334C80.6065 67.2605 81.072 65.0639 82.003 63.1437C82.934 61.2236 84.3014 59.6089 86.1052 58.2997C87.938 56.9614 90.2219 55.9577 92.9567 55.2885C95.6914 54.5903 98.8626 54.2411 102.47 54.2411H109.758ZM143.012 15.9251V83H130.444V15.9251H143.012ZM172.774 35.7814L152.264 59.1725L141.266 70.3007L136.684 61.2236L145.412 50.139L157.675 35.7814H172.774ZM159.726 83L145.761 61.1799L154.446 53.5865L174.215 83H159.726ZM199.046 83.8728C195.38 83.8728 192.093 83.2909 189.183 82.1272C186.274 80.9344 183.801 79.2906 181.764 77.1959C179.757 75.1011 178.215 72.6718 177.138 69.908C176.062 67.115 175.524 64.1475 175.524 61.0054V59.2598C175.524 55.6813 176.033 52.4083 177.051 49.4407C178.069 46.4732 179.524 43.8984 181.415 41.7164C183.335 39.5344 185.663 37.8616 188.398 36.6978C191.132 35.505 194.216 34.9086 197.649 34.9086C200.995 34.9086 203.963 35.4613 206.552 36.5669C209.141 37.6724 211.309 39.2435 213.054 41.28C214.829 43.3166 216.167 45.7604 217.069 48.6116C217.971 51.4336 218.422 54.5757 218.422 58.0378V63.2747H180.892V54.8958H206.072V53.9357C206.072 52.1901 205.752 50.6336 205.112 49.2662C204.501 47.8697 203.57 46.7641 202.319 45.9495C201.068 45.1349 199.468 44.7276 197.518 44.7276C195.86 44.7276 194.435 45.0913 193.242 45.8186C192.049 46.5459 191.074 47.5642 190.318 48.8734C189.59 50.1826 189.038 51.7246 188.659 53.4993C188.31 55.2449 188.136 57.165 188.136 59.2598V61.0054C188.136 62.8964 188.398 64.642 188.921 66.2422C189.474 67.8423 190.245 69.2243 191.234 70.388C192.253 71.5517 193.474 72.4536 194.9 73.0937C196.355 73.7337 197.998 74.0538 199.831 74.0538C202.101 74.0538 204.21 73.6174 206.159 72.7446C208.138 71.8427 209.839 70.4898 211.265 68.686L217.375 75.3193C216.386 76.7449 215.033 78.1123 213.316 79.4215C211.629 80.7307 209.592 81.8072 207.207 82.6509C204.821 83.4655 202.101 83.8728 199.046 83.8728Z" fill="white"/>
<g filter="url(#filter0_d_1_146)">
<path d="M234.002 55.114H217.68L217.593 46.1241H231.296C233.711 46.1241 235.689 45.8186 237.231 45.2076C238.773 44.5676 239.922 43.6511 240.679 42.4583C241.464 41.2364 241.857 39.7526 241.857 38.007C241.857 36.0287 241.479 34.4285 240.722 33.2066C239.995 31.9847 238.846 31.0973 237.275 30.5446C235.733 29.9918 233.74 29.7154 231.296 29.7154H222.219V83H209.127V19.46H231.296C234.991 19.46 238.293 19.8091 241.202 20.5073C244.141 21.2056 246.628 22.2675 248.665 23.6931C250.701 25.1186 252.258 26.9224 253.334 29.1044C254.411 31.2573 254.949 33.8176 254.949 36.7851C254.949 39.4035 254.353 41.8183 253.16 44.0294C251.996 46.2405 250.149 48.0443 247.618 49.4407C245.116 50.8372 241.843 51.6082 237.799 51.7537L234.002 55.114ZM233.435 83H214.102L219.208 72.7882H233.435C235.733 72.7882 237.609 72.4245 239.064 71.6972C240.519 70.9408 241.595 69.9225 242.293 68.6424C242.992 67.3623 243.341 65.8931 243.341 64.2347C243.341 62.3728 243.021 60.7581 242.381 59.3907C241.77 58.0233 240.781 56.9759 239.413 56.2486C238.046 55.4922 236.242 55.114 234.002 55.114H221.39L221.477 46.1241H237.188L240.199 49.6589C244.068 49.6007 247.181 50.2844 249.538 51.71C251.923 53.1065 253.654 54.9248 254.731 57.165C255.836 59.4052 256.389 61.8054 256.389 64.3657C256.389 68.4387 255.502 71.8718 253.727 74.6647C251.952 77.4286 249.349 79.5088 245.916 80.9053C242.512 82.3018 238.351 83 233.435 83ZM293.352 71.6972V35.7814H305.921V83H294.094L293.352 71.6972ZM294.749 62.0091L298.458 61.9218C298.458 65.0639 298.095 67.9878 297.367 70.6935C296.64 73.3701 295.549 75.6976 294.094 77.6759C292.64 79.6252 290.807 81.1526 288.596 82.2581C286.385 83.3346 283.781 83.8728 280.784 83.8728C278.486 83.8728 276.362 83.5528 274.413 82.9127C272.492 82.2436 270.834 81.2108 269.438 79.8143C268.07 78.3887 266.994 76.5704 266.208 74.3593C265.452 72.1191 265.074 69.4279 265.074 66.2858V35.7814H277.642V66.3731C277.642 67.7696 277.802 68.9479 278.122 69.908C278.471 70.868 278.951 71.6536 279.562 72.2645C280.173 72.8755 280.886 73.3119 281.701 73.5737C282.544 73.8356 283.475 73.9665 284.493 73.9665C287.083 73.9665 289.119 73.4428 290.603 72.3954C292.116 71.3481 293.178 69.9225 293.789 68.1187C294.429 66.2858 294.749 64.2493 294.749 62.0091ZM328.09 46.0804V83H315.522V35.7814H327.348L328.09 46.0804ZM342.317 35.4759L342.098 47.1278C341.487 47.0405 340.746 46.9678 339.873 46.9096C339.029 46.8223 338.258 46.7787 337.56 46.7787C335.785 46.7787 334.243 47.0114 332.934 47.4769C331.654 47.9133 330.577 48.5679 329.705 49.4407C328.861 50.3135 328.221 51.3754 327.784 52.6265C327.377 53.8775 327.144 55.3031 327.086 56.9032L324.555 56.1177C324.555 53.0629 324.861 50.2554 325.472 47.6951C326.083 45.1058 326.97 42.8511 328.134 40.9309C329.326 39.0107 330.781 37.527 332.498 36.4796C334.214 35.4323 336.178 34.9086 338.389 34.9086C339.087 34.9086 339.8 34.9668 340.527 35.0831C341.255 35.1704 341.851 35.3013 342.317 35.4759ZM377.272 35.7814H388.662V81.429C388.662 85.7348 387.702 89.386 385.782 92.3826C383.891 95.4083 381.244 97.6922 377.84 99.2341C374.436 100.805 370.479 101.591 365.97 101.591C363.991 101.591 361.897 101.329 359.685 100.805C357.503 100.281 355.409 99.4669 353.401 98.3613C351.423 97.2558 349.765 95.8593 348.426 94.1719L353.969 86.7531C355.423 88.4405 357.111 89.7497 359.031 90.6807C360.951 91.6407 363.075 92.1208 365.402 92.1208C367.672 92.1208 369.592 91.6989 371.163 90.8552C372.734 90.0406 373.941 88.8332 374.785 87.2331C375.629 85.662 376.05 83.7564 376.05 81.5162V46.6914L377.272 35.7814ZM345.502 59.958V59.0416C345.502 55.434 345.939 52.161 346.812 49.2225C347.713 46.255 348.979 43.7093 350.608 41.5855C352.267 39.4617 354.274 37.8179 356.631 36.6542C358.987 35.4904 361.649 34.9086 364.617 34.9086C367.759 34.9086 370.392 35.4904 372.516 36.6542C374.639 37.8179 376.385 39.4762 377.752 41.6292C379.12 43.753 380.182 46.2696 380.938 49.1789C381.724 52.0591 382.335 55.2158 382.771 58.6488V60.6562C382.335 63.9438 381.68 66.9986 380.807 69.8207C379.934 72.6427 378.785 75.1157 377.36 77.2395C375.934 79.3342 374.159 80.9635 372.036 82.1272C369.941 83.2909 367.439 83.8728 364.529 83.8728C361.62 83.8728 358.987 83.2764 356.631 82.0836C354.303 80.8907 352.31 79.2179 350.652 77.0649C348.994 74.912 347.713 72.3809 346.812 69.4716C345.939 66.5622 345.502 63.391 345.502 59.958ZM358.071 59.0416V59.958C358.071 61.9073 358.26 63.7256 358.638 65.413C359.016 67.1004 359.598 68.5988 360.384 69.908C361.198 71.1881 362.202 72.1918 363.395 72.9191C364.617 73.6174 366.057 73.9665 367.715 73.9665C370.014 73.9665 371.89 73.4865 373.345 72.5264C374.799 71.5372 375.89 70.1843 376.618 68.4678C377.345 66.7513 377.767 64.773 377.883 62.5328V56.8159C377.825 54.983 377.578 53.3393 377.141 51.8846C376.705 50.4008 376.094 49.1353 375.309 48.0879C374.523 47.0405 373.505 46.2259 372.254 45.644C371.003 45.0622 369.519 44.7712 367.802 44.7712C366.144 44.7712 364.704 45.1495 363.482 45.9059C362.289 46.6332 361.286 47.6369 360.471 48.9171C359.685 50.1972 359.089 51.71 358.682 53.4556C358.274 55.1721 358.071 57.0341 358.071 59.0416ZM420.171 83.8728C416.505 83.8728 413.217 83.2909 410.308 82.1272C407.399 80.9344 404.926 79.2906 402.889 77.1959C400.882 75.1011 399.34 72.6718 398.263 69.908C397.187 67.115 396.649 64.1475 396.649 61.0054V59.2598C396.649 55.6813 397.158 52.4083 398.176 49.4407C399.194 46.4732 400.649 43.8984 402.54 41.7164C404.46 39.5344 406.788 37.8616 409.522 36.6978C412.257 35.505 415.341 34.9086 418.774 34.9086C422.12 34.9086 425.087 35.4613 427.677 36.5669C430.266 37.6724 432.434 39.2435 434.179 41.28C435.954 43.3166 437.292 45.7604 438.194 48.6116C439.096 51.4336 439.547 54.5757 439.547 58.0378V63.2747H402.016V54.8958H427.197V53.9357C427.197 52.1901 426.877 50.6336 426.237 49.2662C425.626 47.8697 424.695 46.7641 423.444 45.9495C422.193 45.1349 420.593 44.7276 418.643 44.7276C416.985 44.7276 415.559 45.0913 414.367 45.8186C413.174 46.5459 412.199 47.5642 411.443 48.8734C410.715 50.1826 410.163 51.7246 409.784 53.4993C409.435 55.2449 409.261 57.165 409.261 59.2598V61.0054C409.261 62.8964 409.522 64.642 410.046 66.2422C410.599 67.8423 411.37 69.2243 412.359 70.388C413.377 71.5517 414.599 72.4536 416.025 73.0937C417.48 73.7337 419.123 74.0538 420.956 74.0538C423.225 74.0538 425.335 73.6174 427.284 72.7446C429.262 71.8427 430.964 70.4898 432.39 68.686L438.5 75.3193C437.51 76.7449 436.157 78.1123 434.441 79.4215C432.754 80.7307 430.717 81.8072 428.331 82.6509C425.946 83.4655 423.225 83.8728 420.171 83.8728ZM459.272 46.0804V83H446.704V35.7814H458.53L459.272 46.0804ZM473.499 35.4759L473.281 47.1278C472.67 47.0405 471.928 46.9678 471.055 46.9096C470.211 46.8223 469.44 46.7787 468.742 46.7787C466.967 46.7787 465.425 47.0114 464.116 47.4769C462.836 47.9133 461.76 48.5679 460.887 49.4407C460.043 50.3135 459.403 51.3754 458.967 52.6265C458.559 53.8775 458.327 55.3031 458.268 56.9032L455.737 56.1177C455.737 53.0629 456.043 50.2554 456.654 47.6951C457.265 45.1058 458.152 42.8511 459.316 40.9309C460.509 39.0107 461.963 37.527 463.68 36.4796C465.396 35.4323 467.36 34.9086 469.571 34.9086C470.27 34.9086 470.982 34.9668 471.71 35.0831C472.437 35.1704 473.033 35.3013 473.499 35.4759Z" fill="#FFC859"/>
</g>
<defs>
<filter id="filter0_d_1_146" x="200.127" y="9.45996" width="280.372" height="98.1307" filterUnits="userSpaceOnUse" color-interpolation-filters="sRGB">
<feFlood flood-opacity="0" result="BackgroundImageFix"/>
<feColorMatrix in="SourceAlpha" type="matrix" values="0 0 0 0 0 0 0 0 0 0 0 0 0 0 0 0 0 0 127 0" result="hardAlpha"/>
<feOffset dx="-1" dy="-2"/>
<feGaussianBlur stdDeviation="4"/>
<feComposite in2="hardAlpha" operator="out"/>
<feColorMatrix type="matrix" values="0 0 0 0 0 0 0 0 0 0 0 0 0 0 0 0 0 0 0.5 0"/>
<feBlend mode="normal" in2="BackgroundImageFix" result="effect1_dropShadow_1_146"/>
<feBlend mode="normal" in="SourceGraphic" in2="effect1_dropShadow_1_146" result="shape"/>
</filter>
</defs>
</svg>
